<svg version="1.2" xmlns="http://www.w3.org/2000/svg" viewBox="0 0 650 646" width="650" height="646">
	<title>image</title>
	<style>
		.s0 { opacity: 1;fill: #000000 } 
		.s1 { fill: #c13f2a } 
		.s2 { opacity: 1;fill: #ab3a36 } 
		.s3 { fill: #591b20 } 
		.s4 { fill: #ffd064 } 
		.s5 { opacity: 1;fill: #ffe07d } 
	</style>
	<g id="Capa 2">
		<path id="Path 0" class="s0" d="m86.5 45.1c-2.8 1.1-6.6 3-8.5 4.2-1.9 1.3-6.4 5.9-9.9 10.3-3.6 4.3-9.5 12.6-13.3 18.4-3.8 5.8-9.8 16.3-13.3 23.5-3.5 7.2-8 17.5-10 23-2 5.5-5.2 15.8-7 23-1.9 7.2-4.3 19.3-5.4 27-1.1 7.7-2.3 18.9-2.7 25-0.4 7.4-0.2 12.5 0.6 15.5 0.6 2.5 2.2 5.8 3.5 7.5 2.1 2.7 5.4 21.9 31.9 182 16.3 98.4 30.4 181 31.4 183.5 0.9 2.5 3 6 4.7 7.9 1.6 1.9 5.7 4.7 9 6.3 3.3 1.5 7.7 2.8 9.8 2.8 2 0 5.8-0.9 8.5-2.1 2.6-1.1 6.2-3.1 8-4.5 1.7-1.3 4.3-4.5 5.6-7.2 1.3-2.6 2.6-5.9 3-7.5 0.3-1.5-0.1-12.9-0.9-25.4-0.8-12.6-1.9-28.2-2.5-34.8-0.6-6.6-1.7-22.8-2.5-36-0.9-13.2-2.1-25.3-2.8-26.9-0.7-1.6-2.1-3.5-3.2-4.3-1.1-0.7-3.5-1.3-5.3-1.3q-3.3 0-5.7 2.5c-2.1 2.1-2.5 3.5-2.5 8.2 0 3.2 0.4 11.7 1 18.8 0.5 7.1 2.1 29.2 3.5 49 1.4 19.8 2.6 38.8 2.7 42.1 0.3 5-0.1 6.6-1.7 8.4-1.5 1.5-2.9 2-5.4 1.8-2.2-0.2-4-1.1-5.2-2.8-1.3-1.9-8.6-43.9-29.8-172-15.5-93.2-28.1-170.1-28.1-170.8 0-0.6 5.1 2.2 11.3 6.4 6.1 4.2 15.9 11.4 21.7 15.9 5.8 4.5 16.1 13.2 23 19.3 6.9 6.1 17.6 16.1 23.8 22.4l11.3 11.3c-8.9 14.7-13.3 23.3-15.6 28.5-2.4 5.2-5.6 13.8-7.3 19-1.7 5.2-4 14-5.2 19.5-1.4 6.6-2.3 15.4-2.7 26-0.5 14.6-0.4 16.2 1.3 18.3 1.1 1.3 3.6 2.7 5.7 3.2 3.4 0.9 4 0.8 7.2-2.2 3.4-3.3 3.4-3.3 3.5-12.3 0-4.9 0.5-12.8 1-17.5 0.6-4.7 2.2-13.2 3.6-19 1.4-5.8 4.3-15 6.4-20.5 2.2-5.5 6.1-13.8 8.7-18.4 2.7-4.6 5.4-8.6 6.1-8.7 0.6-0.2 4.6 3.8 8.7 8.8 4.2 5.1 12.4 16.1 18.3 24.3 5.9 8.2 14.9 22 20 30.5 5.2 8.5 13.6 24.1 18.8 34.5 5.1 10.4 12 25.8 15.3 34 3.2 8.2 9.1 25.1 13.1 37.5 4 12.4 8.8 25.9 10.8 30 2 4.1 6.1 11.3 9.3 16 3.1 4.7 9.1 12 13.3 16.3 4.2 4.2 10.9 10.1 14.9 13.1 3.9 2.9 10.1 6.9 13.7 8.9 3.6 2 10.7 5.2 15.8 7.1 5 2 14.7 4.7 21.5 6 6.7 1.4 16.9 2.9 22.7 3.6 5.8 0.6 13.5 1.5 17.3 2 3.7 0.6 12.2 1 19 1 6.7 0 16-0.5 20.7-1.1 4.7-0.6 13.4-1.7 19.5-2.5 6.1-0.8 17.1-2.9 24.5-4.6 7.4-1.7 21.1-5.3 30.5-8 9.4-2.7 27.1-8.3 39.5-12.5 12.4-4.1 30.8-10.9 41-15 10.2-4.1 23.7-9.7 30-12.5 6.3-2.8 13.9-6.8 16.8-8.9 2.8-2.2 6.8-6 8.7-8.7 1.9-2.6 4.4-7.2 5.6-10.2 1.1-3 2.3-8.4 2.6-12 0.3-3.6 0-9-0.6-12-0.6-3-2.5-8.4-4.3-12-1.8-3.6-5.4-8.6-8-11.3-2.7-2.6-6.5-5.5-8.5-6.6-2.1-1-10.3-4.7-18.3-8.1-8-3.4-22.8-9.3-33-13-10.2-3.7-25-8.9-33-11.6-13.8-4.7-15-4.9-25-4.8-9.2 0-11.4 0.4-17.5 2.9-6.1 2.5-8.5 2.9-19.5 3.2-6.9 0.3-16.9-0.1-22.2-0.6-5.4-0.6-13.3-1.8-17.5-2.7-4.3-0.8-13.2-3.3-19.8-5.5-6.6-2.2-17.6-7-24.5-10.5-9.5-5-13.1-6.4-15-5.9-1.4 0.4-3.5 1.6-4.7 2.8-1.3 1.2-2.4 3.1-2.6 4.2-0.3 1.1 0.2 3.5 0.9 5.2 1 2.4 3.3 4.4 8.7 7.5 3.9 2.3 10.8 5.8 15.2 7.8 4.4 2.1 12.9 5.3 19 7.3 6.1 1.9 14.6 4.2 19 5 4.4 0.9 9.8 1.9 12 2.2 2.9 0.5 3.6 0.9 2.5 1.5-0.8 0.5-5.8 2-11 3.4-5.2 1.4-13.8 3-19 3.5-5.2 0.6-12.9 0.8-17 0.5-4.1-0.3-10.4-1.1-14-1.9-3.6-0.7-10.1-2.7-14.5-4.4-4.4-1.6-12.1-5.7-17-8.9-4.9-3.3-13.1-10-18-14.8-4.9-4.9-12.6-13.7-17-19.6-4.4-5.8-11.2-15.9-15.2-22.5-3.9-6.5-11.2-19.9-16.1-29.8-5-9.9-11.8-24.3-15.2-32-3.4-7.7-13.5-31.1-22.5-52-8.9-20.9-17.2-39.9-18.4-42.3-1.1-2.3-2-4.6-1.8-5.2 0.1-0.5 6.1 8.4 13.4 19.8 7.2 11.4 17.1 27.2 21.9 35.2 4.8 8 16.8 28.9 26.7 46.5 9.9 17.6 19.8 34.7 22 38 2.3 3.3 6.6 9.4 9.6 13.5 3 4.1 8.2 10.3 11.6 13.7 5 5.2 6.6 6.3 9.3 6.3 2.4 0 4.2-0.8 6.3-3 1.9-2 2.9-4 2.9-6 0-1.9-1.2-4.4-3.2-6.9-1.8-2.2-6.2-7.5-9.7-11.8-3.5-4.3-8.8-11.4-11.6-15.8-2.9-4.4-11.8-19.7-19.8-34-7.9-14.3-19.5-34.6-25.7-45-6.3-10.4-16.5-27.1-22.8-37-6.3-9.9-17.5-27-25-38-7.4-11-16.9-24.7-21.1-30.5-4.1-5.8-13.5-18.6-21-28.5-7.4-9.9-19.3-25.4-26.5-34.5-7.1-9.1-20-25.1-28.5-35.5-8.6-10.5-17.2-20.5-19.1-22.3-1.9-1.8-4.6-3.9-6-4.7-1.4-0.7-4.5-2-7-2.9-2.5-0.9-6.1-1.5-8-1.5-1.9 0.1-5.7 1-8.5 2z"/>
		<path id="Path 1" class="s1" d="m106.8 75.5c-1.4 2.2-4.3 7.4-6.6 11.5-2.2 4.1-5.7 11.3-7.8 16-2 4.7-5.2 13-7 18.5-1.9 5.5-4.3 13.4-5.4 17.5-1.1 4.1-2.8 12.7-3.9 19-1.1 6.3-2.5 18-3 26-0.7 9.6-0.7 15.8-0.1 18.3 0.8 2.9 2 4.3 5.5 6.4 2.5 1.6 12.1 7.7 21.3 13.8 9.2 6.1 21.9 15 28.2 20 6.3 4.9 16.9 13.7 23.5 19.4 6.6 5.8 18.2 16.8 25.9 24.5 7.6 7.8 18.5 19.5 24.1 26.1 5.6 6.6 14.2 17.2 19.1 23.5 4.9 6.3 12.8 17.4 17.5 24.5 4.7 7.2 11 17.1 13.9 22 2.9 4.9 8.6 15.3 12.6 23 4 7.7 9.6 19.2 12.4 25.5 2.8 6.3 7.7 18.5 10.9 27 3.2 8.5 8.2 23.1 11 32.5 2.9 9.4 7.3 21.1 9.8 26 2.5 5 6.7 12.1 9.4 16 2.6 3.9 8.5 10.7 13.1 15.1 4.6 4.5 12.1 10.6 16.8 13.7 4.7 3.1 11.5 6.9 15.2 8.6 3.8 1.7 10.5 4.2 15 5.5 4.6 1.3 13.9 3.3 20.8 4.5 6.9 1.1 17.9 2.5 24.5 3.1 10.6 0.9 13.3 0.8 23.5-1 6.3-1.2 17.6-3.6 25-5.5 7.4-1.9 23.6-6.5 36-10.4 12.4-3.8 31.5-10.3 42.5-14.4 11-4.1 25-9.5 31-12 6-2.5 15.3-6.5 20.5-8.9 7.1-3.3 10.4-5.5 13.3-8.9 2.3-2.6 4.4-6.6 5.4-9.9q1.5-5.5 0.8-10c-0.4-2.5-1.9-6.7-3.3-9.4-1.5-2.7-4.1-5.9-5.7-7.2-1.6-1.2-6.6-3.9-11-5.9-4.4-2-15.2-6.5-24-10-8.8-3.5-26.1-9.8-38.5-14.1-20.7-7.2-23.1-7.8-30.5-7.8-8-0.1-8.1 0-20.5 6.6-6.9 3.6-17.2 8.6-23 11.1-5.8 2.5-15.7 6.1-22 8-6.3 1.9-16 4.2-21.5 5.1-5.5 0.9-14.8 1.6-20.8 1.6-6.7 0-14.4-0.7-20.5-2-5.3-1-13.3-3.3-17.7-4.9-4.4-1.7-11.8-5.3-16.5-8.1-4.7-2.8-11.4-7.5-15-10.5-3.6-2.9-10.8-9.7-16-15.2-5.2-5.4-12.4-14-16-19.1-3.6-5.1-9.5-14-13.2-20-3.7-5.9-10.6-18.1-15.2-27.2-4.6-9.1-11.2-22.6-14.6-30-3.4-7.4-12.2-27.2-19.5-44-7.3-16.8-16-36.6-19.3-44-3.3-7.4-9.5-21.2-13.9-30.5-4.4-9.3-12.4-25.3-17.8-35.5-5.3-10.2-14.3-26.2-19.8-35.5-5.5-9.3-14.4-23.5-19.7-31.5-5.3-8-15.3-21.9-22.1-31-6.8-9.1-12.9-17.2-13.5-18-1-1.3-1.5-0.9-3.6 2.5z"/>
		<path id="Path 2" class="s2" d="m87.4 65.3c-2 1.7-6.9 7.7-10.9 13.2-3.9 5.5-8.8 12.7-10.8 16-1.9 3.3-6.1 11.2-9.1 17.5-3 6.3-7.6 17.7-10.1 25.3-2.5 7.5-5.6 19.2-7 26-1.3 6.7-2.9 16.3-3.4 21.2-0.5 4.9-1.2 12.9-1.5 17.8l-0.6 8.7c7.2 4.3 15.4 9.5 22.9 14.4 7.5 4.9 18.1 12.3 23.6 16.4 5.5 4.2 15.4 12.1 22 17.6 6.6 5.5 18.3 16.1 25.9 23.6 7.6 7.4 18.6 18.7 24.4 25 5.8 6.3 15.2 17.4 20.9 24.5 5.7 7.1 13.7 17.7 17.8 23.5 4 5.8 11.5 17.3 16.6 25.5 5.1 8.3 12.3 20.9 16 28 3.8 7.1 9.6 19.1 12.9 26.5 3.4 7.4 8.7 20.5 11.9 29 3.3 8.5 8.2 23.1 11.1 32.5 2.8 9.4 7.1 21 9.5 26 2.3 5 6.9 12.6 10.2 17 3.3 4.4 8.8 10.6 12.4 13.9 3.5 3.2 8.9 7.5 11.9 9.5 3 2.1 8.2 5.2 11.5 6.9 3.3 1.7 8.2 4 11 5 2.7 1.1 10.2 3.1 16.5 4.5 6.3 1.4 15.8 3.1 21 3.9 6 0.8 19.6 1.3 36.7 1.3 20.4 0 27.5-0.3 28.5-1.2 1-1 0.1-1.3-4.2-1.3-3 0-11.6-0.9-19-2-7.4-1.1-17.8-3-23-4.4-5.2-1.3-12.9-3.7-17-5.4-4.1-1.7-12.2-6.2-18-10.1-6.5-4.3-13.5-10-18.6-15.2-4.4-4.6-9.9-11.1-12.1-14.4-2.2-3.3-6.1-10-8.6-15-2.5-4.9-6.9-16.6-9.8-26-2.8-9.4-7.8-24-11-32.5-3.2-8.5-8.1-20.7-10.9-27-2.8-6.3-8.4-17.8-12.4-25.5-4-7.7-9.7-18.1-12.6-23-2.9-4.9-9.2-14.8-13.9-22-4.7-7.1-12.6-18.2-17.5-24.5-4.9-6.3-13.5-16.9-19.1-23.5-5.6-6.6-16.5-18.3-24.1-26.1-7.7-7.7-19.3-18.7-25.9-24.5-6.6-5.7-17.2-14.5-23.5-19.4-6.3-5-19-13.9-28.2-20-9.2-6.1-18.8-12.2-21.3-13.7-3.5-2.2-4.7-3.6-5.5-6.5-0.6-2.5-0.6-8.7 0-17.8 0.6-7.7 1.7-18.3 2.5-23.5 0.9-5.2 2.5-13.3 3.6-18 1-4.7 3.6-13.4 5.6-19.5 2-6 5.9-16.2 8.7-22.5 2.9-6.3 7.5-15.4 10.4-20.3l5.2-8.7c-4.3-5.6-6.7-7.9-8.3-8.6-1.5-0.8-4.3-1.4-6.2-1.4-2.4 0-4.5 0.9-7.1 3.3z"/>
		<path id="Path 3" class="s3" d="m226 227.8c0 0.6 1 3.1 2.1 5.4 1.2 2.4 9.5 21.4 18.4 42.3 9 20.9 19.1 44.3 22.5 52 3.4 7.7 10.2 22.1 15.2 32 4.9 9.9 12.2 23.3 16.1 29.8 4 6.6 10.8 16.7 15.2 22.5 4.4 5.9 12.1 14.7 17 19.6 4.9 4.8 13.1 11.5 18 14.8 4.9 3.2 12.6 7.3 17 8.9 4.4 1.7 10.9 3.7 14.5 4.4 3.6 0.7 8.6 1.6 11.3 1.9 2.6 0.3 4.7 0.3 4.7-0.2 0-0.4-2.3-1.8-5.2-3.2-2.9-1.4-10-5.6-15.8-9.4-7.5-5-14.3-10.7-23.6-20-7.9-8-15.6-16.8-19.6-22.6-3.6-5.2-8.1-12.3-10.2-15.8-2-3.4-3.6-6.9-3.6-7.7 0-0.8-1.3-3.2-2.8-5.3-1.6-2-4.7-6.4-6.9-9.7-2.2-3.3-12.1-20.4-22-38-9.9-17.6-22.2-39-27.3-47.5-5.1-8.5-14.9-24.3-21.8-35-6.8-10.7-12.6-19.7-12.8-20-0.3-0.3-0.4 0.1-0.4 0.7z"/>
		<path id="Path 4" class="s4" d="m44 240.2c0 0.7 12.6 77.6 28.1 170.8 21.2 128.1 28.5 170.1 29.8 172 1 1.4 3.1 2.7 4.7 2.9 2.5 0.3 2.8 0.1 2.1-1.5-0.4-1.1-1.7-10.2-2.8-20.4-1.1-10.2-2.4-23.5-2.9-29.5-0.5-6-3.6-38.7-7-72.5-3.3-33.8-6.5-65.8-7-71-0.6-5.2-3.5-35.1-6.5-66.5-3-31.4-5.7-58.4-6-60-0.4-2.4-2.3-4.3-8.8-9.1-4.5-3.3-11.7-8.4-15.9-11.3-4.4-2.9-7.7-4.6-7.8-3.9z"/>
		<path id="Path 5" class="s5" d="m76.4 264.5c0.3 1.6 3.1 28.6 6.1 60 3 31.4 5.9 61.3 6.5 66.5 0.5 5.2 3.7 37.2 7 71 3.4 33.8 6.5 66.5 7 72.5 0.5 6 1.8 19.3 2.9 29.5 1.1 10.2 2.2 19.3 2.5 20.3 0.3 0.9 0.9 1.7 1.3 1.7 0.5 0.1 1.7-0.9 2.8-2.1 1.6-1.7 2-3.3 1.7-8.3-0.1-3.3-1.3-22.3-2.7-42.1-1.4-19.8-3-41.9-3.5-49-0.6-7.1-1-15.6-1-18.8 0-4.7 0.4-6.1 2.5-8.2 1.3-1.4 3.4-2.5 4.7-2.5 2.3 0 2.3 0 1.6-10.3-0.4-5.6-1-11.2-1.3-12.4-0.3-1.6-1.2-2.3-3-2.3-1.4 0-3.7-1.2-5.2-2.7l-2.7-2.8c1.1-26.4 2-35.5 3.4-42 1.2-5.5 3.5-14.3 5.2-19.5 1.7-5.2 4.9-13.8 7.3-19 2.3-5.2 6.7-13.8 9.9-19l5.7-9.5c-25.3-24.8-37.8-36.3-44.1-41.5-6.3-5.3-12.3-10.2-13.3-11-1.7-1.4-1.8-1.3-1.3 1.5z"/>
		<path id="Path 6" class="s2" d="m320 382.8c0 0.6 1.6 4 3.6 7.4 2.1 3.5 6.6 10.6 10.2 15.8 4 5.8 11.6 14.5 19.6 22.5 8 8 16.6 15.5 22.1 19.2 4.9 3.3 12.8 7.9 17.5 10.3l8.5 4.2c16.3-1.8 25.3-3.4 30.5-4.8 5.2-1.4 10.2-2.9 11-3.4 1.1-0.6 0.4-1-2.5-1.5-2.2-0.3-7.6-1.3-12-2.2-4.4-0.8-12.9-3.1-19-5-6.1-2-14.6-5.2-19-7.3-4.4-2-11.3-5.5-15.3-7.8-5.3-3.1-7.6-5.1-8.6-7.5-0.9-2.2-1.1-4.1-0.5-6.2 0.5-1.6 0.9-3.1 0.9-3.3 0-0.1-0.4-0.2-1-0.2-0.6 0-3.8-2.2-7.3-4.9-3.4-2.7-7.3-6.1-8.7-7.5-2.3-2.3-2.7-2.4-4.5-1.1-1.1 0.9-3.4 1.5-5 1.5-2.3-0.1-4.3-1.4-8.6-5.8-3-3.1-7-7.5-8.7-9.7-1.8-2.2-3.2-3.4-3.2-2.8z"/>
	</g>
</svg>